<?xml version="1.0" standalone="no"?>
<!DOCTYPE svg PUBLIC "-//W3C//DTD SVG 20010904//EN"
 "http://www.w3.org/TR/2001/REC-SVG-20010904/DTD/svg10.dtd">
<svg version="1.0" xmlns="http://www.w3.org/2000/svg"
 width="512.000000pt" height="512.000000pt" viewBox="0 0 512.000000 512.000000"
 preserveAspectRatio="xMidYMid meet">

<g transform="translate(0.000000,512.000000) scale(0.100000,-0.100000)"
fill="#000000" stroke="none">
<path d="M2255 5113 c-200 -26 -367 -76 -525 -156 -323 -164 -571 -388 -900
-812 -117 -151 -151 -187 -223 -236 -68 -47 -91 -79 -89 -125 2 -45 16 -71 52
-89 44 -23 81 -18 136 16 89 57 165 131 267 263 151 194 232 289 348 407 318
322 657 496 1004 516 461 25 869 -223 1138 -692 101 -176 169 -354 258 -675
33 -118 74 -246 91 -283 46 -99 102 -145 168 -138 70 8 111 90 75 151 -43 74
-76 161 -114 300 -154 562 -311 870 -586 1146 -152 153 -298 250 -485 324
-168 66 -451 104 -615 83z"/>
<path d="M2466 4634 c-320 -63 -656 -281 -924 -599 -200 -236 -326 -360 -467
-455 -93 -63 -311 -180 -408 -220 -88 -36 -112 -62 -112 -122 0 -54 49 -103
103 -102 53 2 155 45 322 137 300 165 425 271 707 597 284 329 579 519 881
565 80 13 124 73 102 141 -24 72 -70 85 -204 58z"/>
<path d="M2770 4172 c-68 -7 -160 -32 -226 -62 -136 -61 -230 -136 -469 -370
-320 -312 -503 -468 -733 -622 -182 -122 -439 -246 -668 -322 -133 -44 -159
-66 -159 -133 0 -38 5 -49 33 -74 45 -40 84 -38 238 15 306 105 577 249 829
439 210 158 342 276 620 548 269 264 372 333 535 360 71 12 109 4 196 -37 227
-107 277 -357 129 -642 -64 -124 -130 -209 -279 -357 -252 -251 -518 -442
-1101 -789 -382 -228 -652 -375 -849 -462 -115 -51 -146 -80 -146 -141 0 -63
40 -103 102 -103 103 0 812 386 1402 762 767 488 1142 920 1173 1348 11 154
-37 316 -124 420 -122 148 -331 240 -503 222z"/>
<path d="M2721 3634 c-13 -9 -59 -62 -103 -118 -429 -544 -1099 -1000 -1925
-1311 -85 -31 -113 -60 -113 -117 0 -71 54 -116 126 -105 65 11 367 138 599
252 646 318 1159 717 1501 1168 64 84 74 104 74 139 0 81 -95 136 -159 92z"/>
<path d="M3442 2966 c-32 -30 -37 -40 -37 -78 1 -60 41 -179 85 -247 73 -112
177 -199 340 -281 108 -55 165 -59 207 -17 23 22 28 36 28 76 0 27 -6 55 -15
66 -8 9 -65 41 -126 71 -184 88 -273 188 -305 342 -14 71 -44 102 -99 102 -32
0 -48 -7 -78 -34z"/>
<path d="M3027 2510 c-14 -11 -31 -36 -37 -54 -10 -30 -8 -42 18 -99 45 -99
127 -213 223 -311 l88 -90 53 50 c29 27 68 60 87 74 l34 26 -50 38 c-89 68
-199 207 -246 312 -32 70 -115 97 -170 54z"/>
<path d="M3837 2094 c-197 -47 -366 -206 -438 -410 -27 -77 -36 -232 -19 -315
l13 -61 -171 -171 c-128 -128 -172 -178 -172 -196 0 -14 9 -58 21 -99 11 -40
18 -76 15 -79 -2 -3 -48 5 -101 18 l-95 23 -56 -54 c-59 -59 -58 -55 -38 -147
l7 -33 -75 0 -75 0 -66 -69 -67 -69 0 -195 c0 -160 3 -197 15 -207 12 -10 45
-8 162 10 82 12 164 25 183 30 28 8 122 97 454 428 l418 419 62 -20 c82 -27
255 -29 341 -3 281 84 470 349 452 631 -23 335 -291 587 -622 584 -49 0 -116
-7 -148 -15z m271 -182 c228 -72 367 -317 307 -545 -19 -72 -54 -140 -99 -192
l-35 -40 -320 320 c-177 176 -321 325 -321 330 0 13 81 76 129 100 95 48 234
59 339 27z"/>
<path d="M2445 1936 c-119 -44 -242 -118 -860 -518 -263 -170 -429 -266 -517
-298 -72 -27 -98 -58 -98 -117 0 -33 6 -50 24 -68 84 -84 219 -21 881 410 350
228 487 312 589 362 61 29 78 34 122 30 77 -8 194 -73 444 -251 l95 -67 3 38
c1 21 9 76 18 122 8 46 14 84 12 86 -2 1 -52 36 -113 77 -301 205 -446 252
-600 194z"/>
<path d="M2425 1266 c-112 -27 -340 -170 -785 -491 -263 -190 -285 -211 -277
-270 8 -54 53 -95 106 -95 32 0 55 12 133 69 442 319 685 485 807 547 48 24
72 31 95 27 17 -3 91 -37 163 -75 l133 -69 24 54 c13 29 38 70 56 90 18 21 31
39 29 41 -17 13 -137 80 -194 108 -129 65 -213 83 -290 64z"/>
<path d="M2325 567 c-115 -43 -300 -183 -452 -340 -66 -68 -73 -79 -73 -115 0
-75 74 -129 141 -104 14 6 68 50 120 99 52 48 122 110 156 136 65 51 73 66 73
135 0 56 21 100 77 162 50 56 45 59 -42 27z"/>
</g>
</svg>
